<mxfile host="Electron" modified="2023-12-27T07:23:13.174Z" agent="Mozilla/5.0 (Windows NT 10.0; Win64; x64) AppleWebKit/537.36 (KHTML, like Gecko) draw.io/22.1.11 Chrome/114.0.5735.289 Electron/25.9.8 Safari/537.36" etag="0iCxJ5h5yRp7NfMSb9oE" version="22.1.11" type="device">
  <diagram name="第 1 页" id="Q_sLeXLX3d9GiXt2leEw">
    <mxGraphModel dx="1418" dy="828" grid="1" gridSize="10" guides="1" tooltips="1" connect="1" arrows="1" fold="1" page="1" pageScale="1" pageWidth="827" pageHeight="1169" math="0" shadow="0">
      <root>
        <mxCell id="0" />
        <mxCell id="1" parent="0" />
        <mxCell id="1jTtl30wcrlICotJCvi3-1" value="客户" style="whiteSpace=wrap;html=1;align=center;" parent="1" vertex="1">
          <mxGeometry x="200" y="200" width="100" height="40" as="geometry" />
        </mxCell>
        <mxCell id="1jTtl30wcrlICotJCvi3-3" value="电信客服" style="whiteSpace=wrap;html=1;align=center;" parent="1" vertex="1">
          <mxGeometry x="350" y="305" width="100" height="40" as="geometry" />
        </mxCell>
        <mxCell id="1jTtl30wcrlICotJCvi3-7" value="网络机房客服" style="whiteSpace=wrap;html=1;align=center;" parent="1" vertex="1">
          <mxGeometry x="650" y="505" width="100" height="40" as="geometry" />
        </mxCell>
        <mxCell id="BXzAUfsid9z-UUDk1zcR-1" value="" style="html=1;shadow=0;dashed=0;align=center;verticalAlign=middle;shape=mxgraph.arrows2.bendArrow;dy=15;dx=38;notch=0;arrowHead=55;rounded=1;flipV=1;" vertex="1" parent="1">
          <mxGeometry x="240" y="255" width="100" height="100" as="geometry" />
        </mxCell>
        <mxCell id="BXzAUfsid9z-UUDk1zcR-2" value="" style="html=1;shadow=0;dashed=0;align=center;verticalAlign=middle;shape=mxgraph.arrows2.bendArrow;dy=15;dx=38;notch=0;arrowHead=55;rounded=1;flipV=1;" vertex="1" parent="1">
          <mxGeometry x="390" y="355" width="100" height="100" as="geometry" />
        </mxCell>
        <mxCell id="BXzAUfsid9z-UUDk1zcR-3" value="网络业务客服" style="whiteSpace=wrap;html=1;align=center;" vertex="1" parent="1">
          <mxGeometry x="500" y="405" width="100" height="40" as="geometry" />
        </mxCell>
        <mxCell id="BXzAUfsid9z-UUDk1zcR-4" value="" style="html=1;shadow=0;dashed=0;align=center;verticalAlign=middle;shape=mxgraph.arrows2.bendArrow;dy=15;dx=38;notch=0;arrowHead=55;rounded=1;flipV=1;" vertex="1" parent="1">
          <mxGeometry x="540" y="455" width="100" height="100" as="geometry" />
        </mxCell>
      </root>
    </mxGraphModel>
  </diagram>
</mxfile>
